<mxfile host="65bd71144e">
    <diagram id="FWp0LGkRE8JFmX-_dE24" name="Page-1">
        <mxGraphModel dx="3033" dy="2536" grid="1" gridSize="10" guides="1" tooltips="1" connect="1" arrows="1" fold="1" page="1" pageScale="1" pageWidth="850" pageHeight="1100" math="0" shadow="0">
            <root>
                <mxCell id="0"/>
                <mxCell id="1" parent="0"/>
                <mxCell id="18" value="" style="ellipse;html=1;shape=startState;fillColor=#000000;strokeColor=#ff0000;" vertex="1" parent="1">
                    <mxGeometry x="465" y="-10" width="30" height="30" as="geometry"/>
                </mxCell>
                <mxCell id="19" value="" style="edgeStyle=orthogonalEdgeStyle;html=1;verticalAlign=bottom;endArrow=open;endSize=8;strokeColor=#ff0000;entryX=0.5;entryY=0;entryDx=0;entryDy=0;" edge="1" source="18" parent="1" target="20">
                    <mxGeometry relative="1" as="geometry">
                        <mxPoint x="480" y="120" as="targetPoint"/>
                    </mxGeometry>
                </mxCell>
                <mxCell id="20" value="Login" style="rounded=1;whiteSpace=wrap;html=1;arcSize=40;fontColor=#000000;fillColor=#ffffc0;strokeColor=#ff0000;" vertex="1" parent="1">
                    <mxGeometry x="420" y="80" width="120" height="40" as="geometry"/>
                </mxCell>
                <mxCell id="21" value="" style="edgeStyle=orthogonalEdgeStyle;html=1;verticalAlign=bottom;endArrow=open;endSize=8;strokeColor=#ff0000;entryX=0.5;entryY=0;entryDx=0;entryDy=0;" edge="1" source="20" parent="1" target="55">
                    <mxGeometry relative="1" as="geometry">
                        <mxPoint x="480" y="140" as="targetPoint"/>
                    </mxGeometry>
                </mxCell>
                <mxCell id="150" style="edgeStyle=none;html=1;exitX=0.5;exitY=1;exitDx=0;exitDy=0;entryX=0.5;entryY=0.338;entryDx=0;entryDy=0;entryPerimeter=0;strokeColor=#df3323;" edge="1" parent="1" source="24" target="37">
                    <mxGeometry relative="1" as="geometry"/>
                </mxCell>
                <mxCell id="24" value="Check User Level and Permissions" style="rounded=1;whiteSpace=wrap;html=1;arcSize=40;fontColor=#000000;fillColor=#ffffc0;strokeColor=#ff0000;" vertex="1" parent="1">
                    <mxGeometry x="420" y="240" width="120" height="40" as="geometry"/>
                </mxCell>
                <mxCell id="78" style="edgeStyle=none;html=1;exitX=0;exitY=0.5;exitDx=0;exitDy=0;exitPerimeter=0;entryX=0.5;entryY=0;entryDx=0;entryDy=0;strokeColor=#df3323;" edge="1" parent="1" source="37" target="42">
                    <mxGeometry relative="1" as="geometry"/>
                </mxCell>
                <mxCell id="79" style="edgeStyle=none;html=1;exitX=1;exitY=0.5;exitDx=0;exitDy=0;exitPerimeter=0;strokeColor=#df3323;" edge="1" parent="1" source="37" target="44">
                    <mxGeometry relative="1" as="geometry"/>
                </mxCell>
                <mxCell id="37" value="" style="shape=line;html=1;strokeWidth=6;strokeColor=#ff0000;" vertex="1" parent="1">
                    <mxGeometry x="-80" y="320" width="1120" height="10" as="geometry"/>
                </mxCell>
                <mxCell id="38" value="" style="edgeStyle=orthogonalEdgeStyle;html=1;verticalAlign=bottom;endArrow=open;endSize=8;strokeColor=#ff0000;entryX=0.5;entryY=0;entryDx=0;entryDy=0;" edge="1" source="37" parent="1" target="39">
                    <mxGeometry relative="1" as="geometry">
                        <mxPoint x="480" y="440" as="targetPoint"/>
                    </mxGeometry>
                </mxCell>
                <mxCell id="39" value="Employee" style="rhombus;whiteSpace=wrap;html=1;fillColor=#ffffc0;strokeColor=#ff0000;" vertex="1" parent="1">
                    <mxGeometry x="440" y="360" width="80" height="40" as="geometry"/>
                </mxCell>
                <mxCell id="41" value="yes" style="edgeStyle=orthogonalEdgeStyle;html=1;align=left;verticalAlign=top;endArrow=open;endSize=8;strokeColor=#ff0000;entryX=0.5;entryY=0;entryDx=0;entryDy=0;" edge="1" source="39" parent="1" target="86">
                    <mxGeometry x="-1" relative="1" as="geometry">
                        <mxPoint x="480" y="510" as="targetPoint"/>
                    </mxGeometry>
                </mxCell>
                <mxCell id="42" value="Customer" style="rhombus;whiteSpace=wrap;html=1;fillColor=#ffffc0;strokeColor=#ff0000;" vertex="1" parent="1">
                    <mxGeometry x="-120" y="390" width="80" height="40" as="geometry"/>
                </mxCell>
                <mxCell id="43" value="yes" style="edgeStyle=orthogonalEdgeStyle;html=1;align=left;verticalAlign=top;endArrow=open;endSize=8;strokeColor=#ff0000;" edge="1" source="42" parent="1">
                    <mxGeometry x="-1" relative="1" as="geometry">
                        <mxPoint x="-80" y="510" as="targetPoint"/>
                    </mxGeometry>
                </mxCell>
                <mxCell id="44" value="Manager" style="rhombus;whiteSpace=wrap;html=1;fillColor=#ffffc0;strokeColor=#ff0000;" vertex="1" parent="1">
                    <mxGeometry x="1000" y="360" width="80" height="40" as="geometry"/>
                </mxCell>
                <mxCell id="61" style="edgeStyle=none;html=1;exitX=1;exitY=0.5;exitDx=0;exitDy=0;strokeColor=#df3323;" edge="1" parent="1" source="55">
                    <mxGeometry relative="1" as="geometry">
                        <mxPoint x="480" y="40" as="targetPoint"/>
                        <Array as="points">
                            <mxPoint x="560" y="180"/>
                            <mxPoint x="560" y="40"/>
                        </Array>
                    </mxGeometry>
                </mxCell>
                <mxCell id="64" style="edgeStyle=none;html=1;exitX=1;exitY=0.5;exitDx=0;exitDy=0;strokeColor=#df3323;entryX=0;entryY=0.5;entryDx=0;entryDy=0;" edge="1" parent="1" source="55" target="65">
                    <mxGeometry relative="1" as="geometry">
                        <mxPoint x="640" y="179.9729729729729" as="targetPoint"/>
                    </mxGeometry>
                </mxCell>
                <mxCell id="55" value="Verification" style="rounded=1;whiteSpace=wrap;html=1;arcSize=40;fontColor=#000000;fillColor=#ffffc0;strokeColor=#ff0000;" vertex="1" parent="1">
                    <mxGeometry x="420" y="160" width="120" height="40" as="geometry"/>
                </mxCell>
                <mxCell id="56" value="" style="edgeStyle=orthogonalEdgeStyle;html=1;verticalAlign=bottom;endArrow=open;endSize=8;strokeColor=#ff0000;" edge="1" source="55" parent="1">
                    <mxGeometry relative="1" as="geometry">
                        <mxPoint x="480" y="240" as="targetPoint"/>
                    </mxGeometry>
                </mxCell>
                <mxCell id="62" value="Invaild" style="text;html=1;strokeColor=none;fillColor=none;align=center;verticalAlign=middle;whiteSpace=wrap;rounded=0;" vertex="1" parent="1">
                    <mxGeometry x="560" y="90" width="60" height="30" as="geometry"/>
                </mxCell>
                <mxCell id="63" value="Vaild" style="text;html=1;strokeColor=none;fillColor=none;align=center;verticalAlign=middle;whiteSpace=wrap;rounded=0;" vertex="1" parent="1">
                    <mxGeometry x="465" y="195" width="60" height="30" as="geometry"/>
                </mxCell>
                <mxCell id="65" value="" style="ellipse;html=1;shape=endState;fillColor=#000000;strokeColor=#ff0000;" vertex="1" parent="1">
                    <mxGeometry x="680" y="165" width="30" height="30" as="geometry"/>
                </mxCell>
                <mxCell id="66" value="Invaild &amp;gt; 3 times" style="text;html=1;strokeColor=none;fillColor=none;align=center;verticalAlign=middle;whiteSpace=wrap;rounded=0;" vertex="1" parent="1">
                    <mxGeometry x="560" y="150" width="110" height="30" as="geometry"/>
                </mxCell>
                <mxCell id="117" style="edgeStyle=none;html=1;exitX=0.5;exitY=1;exitDx=0;exitDy=0;entryX=0.501;entryY=0.75;entryDx=0;entryDy=0;entryPerimeter=0;strokeColor=#df3323;" edge="1" parent="1" source="86" target="88">
                    <mxGeometry relative="1" as="geometry"/>
                </mxCell>
                <mxCell id="86" value="List All Tasks" style="rounded=1;whiteSpace=wrap;html=1;arcSize=40;fontColor=#000000;fillColor=#ffffc0;strokeColor=#ff0000;" vertex="1" parent="1">
                    <mxGeometry x="420" y="440" width="120" height="40" as="geometry"/>
                </mxCell>
                <mxCell id="94" style="edgeStyle=none;html=1;exitX=0;exitY=0.5;exitDx=0;exitDy=0;exitPerimeter=0;strokeColor=#df3323;" edge="1" parent="1" source="88" target="90">
                    <mxGeometry relative="1" as="geometry"/>
                </mxCell>
                <mxCell id="95" style="edgeStyle=none;html=1;exitX=1;exitY=0.5;exitDx=0;exitDy=0;exitPerimeter=0;entryX=0.5;entryY=0;entryDx=0;entryDy=0;strokeColor=#df3323;" edge="1" parent="1" source="88" target="92">
                    <mxGeometry relative="1" as="geometry"/>
                </mxCell>
                <mxCell id="88" value="" style="shape=line;html=1;strokeWidth=6;strokeColor=#ff0000;" vertex="1" parent="1">
                    <mxGeometry x="380" y="520" width="200" height="10" as="geometry"/>
                </mxCell>
                <mxCell id="111" style="edgeStyle=none;html=1;exitX=0.5;exitY=1;exitDx=0;exitDy=0;entryX=0.5;entryY=0;entryDx=0;entryDy=0;strokeColor=#df3323;" edge="1" parent="1" source="90" target="109">
                    <mxGeometry relative="1" as="geometry"/>
                </mxCell>
                <mxCell id="90" value="Checkout Task" style="rounded=1;whiteSpace=wrap;html=1;arcSize=40;fontColor=#000000;fillColor=#ffffc0;strokeColor=#ff0000;" vertex="1" parent="1">
                    <mxGeometry x="320" y="560" width="120" height="40" as="geometry"/>
                </mxCell>
                <mxCell id="92" value="Another Task" style="rounded=1;whiteSpace=wrap;html=1;arcSize=40;fontColor=#000000;fillColor=#ffffc0;strokeColor=#ff0000;" vertex="1" parent="1">
                    <mxGeometry x="520" y="560" width="120" height="40" as="geometry"/>
                </mxCell>
                <mxCell id="93" value="" style="edgeStyle=orthogonalEdgeStyle;html=1;verticalAlign=bottom;endArrow=open;endSize=8;strokeColor=#ff0000;entryX=0.5;entryY=0;entryDx=0;entryDy=0;" edge="1" source="92" parent="1" target="113">
                    <mxGeometry relative="1" as="geometry">
                        <mxPoint x="580" y="720" as="targetPoint"/>
                        <Array as="points">
                            <mxPoint x="580" y="1280"/>
                            <mxPoint x="480" y="1280"/>
                        </Array>
                    </mxGeometry>
                </mxCell>
                <mxCell id="97" value="Get Order From Customer" style="rounded=1;whiteSpace=wrap;html=1;arcSize=40;fontColor=#000000;fillColor=#ffffc0;strokeColor=#ff0000;" vertex="1" parent="1">
                    <mxGeometry x="320" y="720" width="120" height="40" as="geometry"/>
                </mxCell>
                <mxCell id="98" value="" style="edgeStyle=orthogonalEdgeStyle;html=1;verticalAlign=bottom;endArrow=open;endSize=8;strokeColor=#ff0000;" edge="1" source="97" parent="1" target="99">
                    <mxGeometry relative="1" as="geometry">
                        <mxPoint x="380" y="760" as="targetPoint"/>
                    </mxGeometry>
                </mxCell>
                <mxCell id="99" value="Calculate Total Cost" style="rounded=1;whiteSpace=wrap;html=1;arcSize=40;fontColor=#000000;fillColor=#ffffc0;strokeColor=#ff0000;" vertex="1" parent="1">
                    <mxGeometry x="320" y="800" width="120" height="40" as="geometry"/>
                </mxCell>
                <mxCell id="100" value="" style="edgeStyle=orthogonalEdgeStyle;html=1;verticalAlign=bottom;endArrow=open;endSize=8;strokeColor=#ff0000;entryX=0.5;entryY=0;entryDx=0;entryDy=0;" edge="1" source="99" parent="1" target="101">
                    <mxGeometry relative="1" as="geometry">
                        <mxPoint x="380" y="870" as="targetPoint"/>
                    </mxGeometry>
                </mxCell>
                <mxCell id="101" value="Generate Invoice" style="rounded=1;whiteSpace=wrap;html=1;arcSize=40;fontColor=#000000;fillColor=#ffffc0;strokeColor=#ff0000;" vertex="1" parent="1">
                    <mxGeometry x="320" y="880" width="120" height="40" as="geometry"/>
                </mxCell>
                <mxCell id="102" value="" style="edgeStyle=orthogonalEdgeStyle;html=1;verticalAlign=bottom;endArrow=open;endSize=8;strokeColor=#ff0000;entryX=0.5;entryY=0;entryDx=0;entryDy=0;" edge="1" source="101" parent="1" target="103">
                    <mxGeometry relative="1" as="geometry">
                        <mxPoint x="380" y="1000" as="targetPoint"/>
                    </mxGeometry>
                </mxCell>
                <mxCell id="103" value="Get Payment" style="rounded=1;whiteSpace=wrap;html=1;arcSize=40;fontColor=#000000;fillColor=#ffffc0;strokeColor=#ff0000;" vertex="1" parent="1">
                    <mxGeometry x="320" y="960" width="120" height="40" as="geometry"/>
                </mxCell>
                <mxCell id="104" value="" style="edgeStyle=orthogonalEdgeStyle;html=1;verticalAlign=bottom;endArrow=open;endSize=8;strokeColor=#ff0000;entryX=0.5;entryY=0;entryDx=0;entryDy=0;" edge="1" source="103" parent="1" target="107">
                    <mxGeometry relative="1" as="geometry">
                        <mxPoint x="380" y="1110" as="targetPoint"/>
                    </mxGeometry>
                </mxCell>
                <mxCell id="112" style="edgeStyle=none;html=1;exitX=0;exitY=0.5;exitDx=0;exitDy=0;entryX=0;entryY=0.5;entryDx=0;entryDy=0;strokeColor=#df3323;" edge="1" parent="1" source="147" target="109">
                    <mxGeometry relative="1" as="geometry">
                        <Array as="points">
                            <mxPoint x="280" y="1220"/>
                            <mxPoint x="280" y="880"/>
                            <mxPoint x="280" y="660"/>
                        </Array>
                    </mxGeometry>
                </mxCell>
                <mxCell id="151" style="edgeStyle=none;html=1;exitX=0.5;exitY=1;exitDx=0;exitDy=0;strokeColor=#df3323;" edge="1" parent="1" source="105" target="147">
                    <mxGeometry relative="1" as="geometry"/>
                </mxCell>
                <mxCell id="105" value="Update Inventory" style="rounded=1;whiteSpace=wrap;html=1;arcSize=40;fontColor=#000000;fillColor=#ffffc0;strokeColor=#ff0000;" vertex="1" parent="1">
                    <mxGeometry x="320" y="1120" width="120" height="40" as="geometry"/>
                </mxCell>
                <mxCell id="107" value="Comfirm Payment Received" style="rounded=1;whiteSpace=wrap;html=1;arcSize=40;fontColor=#000000;fillColor=#ffffc0;strokeColor=#ff0000;" vertex="1" parent="1">
                    <mxGeometry x="320" y="1040" width="120" height="40" as="geometry"/>
                </mxCell>
                <mxCell id="108" value="" style="edgeStyle=orthogonalEdgeStyle;html=1;verticalAlign=bottom;endArrow=open;endSize=8;strokeColor=#ff0000;entryX=0.5;entryY=0;entryDx=0;entryDy=0;" edge="1" source="107" parent="1" target="105">
                    <mxGeometry relative="1" as="geometry">
                        <mxPoint x="380" y="1230" as="targetPoint"/>
                    </mxGeometry>
                </mxCell>
                <mxCell id="109" value="Waiting Order" style="rounded=1;whiteSpace=wrap;html=1;arcSize=40;fontColor=#000000;fillColor=#ffffc0;strokeColor=#ff0000;" vertex="1" parent="1">
                    <mxGeometry x="320" y="640" width="120" height="40" as="geometry"/>
                </mxCell>
                <mxCell id="110" value="" style="edgeStyle=orthogonalEdgeStyle;html=1;verticalAlign=bottom;endArrow=open;endSize=8;strokeColor=#ff0000;" edge="1" source="109" parent="1" target="97">
                    <mxGeometry relative="1" as="geometry">
                        <mxPoint x="200" y="700" as="targetPoint"/>
                    </mxGeometry>
                </mxCell>
                <mxCell id="116" style="edgeStyle=none;html=1;exitX=1;exitY=0.5;exitDx=0;exitDy=0;strokeColor=#df3323;entryX=1;entryY=0.5;entryDx=0;entryDy=0;" edge="1" parent="1" source="113" target="86">
                    <mxGeometry relative="1" as="geometry">
                        <mxPoint x="570" y="530" as="targetPoint"/>
                        <Array as="points">
                            <mxPoint x="680" y="1340"/>
                            <mxPoint x="680" y="990"/>
                            <mxPoint x="680" y="460"/>
                        </Array>
                    </mxGeometry>
                </mxCell>
                <mxCell id="113" value="Done Task" style="rounded=1;whiteSpace=wrap;html=1;arcSize=40;fontColor=#000000;fillColor=#ffffc0;strokeColor=#ff0000;" vertex="1" parent="1">
                    <mxGeometry x="420" y="1320" width="120" height="40" as="geometry"/>
                </mxCell>
                <mxCell id="114" value="" style="edgeStyle=orthogonalEdgeStyle;html=1;verticalAlign=bottom;endArrow=open;endSize=8;strokeColor=#ff0000;entryX=0.5;entryY=0;entryDx=0;entryDy=0;" edge="1" source="113" parent="1" target="121">
                    <mxGeometry relative="1" as="geometry">
                        <mxPoint x="480" y="1440" as="targetPoint"/>
                    </mxGeometry>
                </mxCell>
                <mxCell id="119" value="Don't Have Task" style="text;html=1;strokeColor=none;fillColor=none;align=center;verticalAlign=middle;whiteSpace=wrap;rounded=0;" vertex="1" parent="1">
                    <mxGeometry x="480" y="1360" width="100" height="30" as="geometry"/>
                </mxCell>
                <mxCell id="120" value="Have Task" style="text;html=1;strokeColor=none;fillColor=none;align=center;verticalAlign=middle;whiteSpace=wrap;rounded=0;" vertex="1" parent="1">
                    <mxGeometry x="560" y="1310" width="60" height="30" as="geometry"/>
                </mxCell>
                <mxCell id="121" value="Timekeeping and Sumarizing" style="rounded=1;whiteSpace=wrap;html=1;arcSize=40;fontColor=#000000;fillColor=#ffffc0;strokeColor=#ff0000;" vertex="1" parent="1">
                    <mxGeometry x="420" y="1400" width="120" height="40" as="geometry"/>
                </mxCell>
                <mxCell id="122" value="" style="edgeStyle=orthogonalEdgeStyle;html=1;verticalAlign=bottom;endArrow=open;endSize=8;strokeColor=#ff0000;entryX=0.5;entryY=0;entryDx=0;entryDy=0;" edge="1" source="121" parent="1" target="139">
                    <mxGeometry relative="1" as="geometry">
                        <mxPoint x="490" y="1730" as="targetPoint"/>
                    </mxGeometry>
                </mxCell>
                <mxCell id="123" value="Time Up or Done Task" style="text;html=1;strokeColor=none;fillColor=none;align=center;verticalAlign=middle;whiteSpace=wrap;rounded=0;" vertex="1" parent="1">
                    <mxGeometry x="410" y="1250" width="140" height="30" as="geometry"/>
                </mxCell>
                <mxCell id="124" value="" style="ellipse;html=1;shape=endState;fillColor=#000000;strokeColor=#ff0000;" vertex="1" parent="1">
                    <mxGeometry x="465" y="2050" width="30" height="30" as="geometry"/>
                </mxCell>
                <mxCell id="125" value="Data Analysis" style="rounded=1;whiteSpace=wrap;html=1;arcSize=40;fontColor=#000000;fillColor=#ffffc0;strokeColor=#ff0000;" vertex="1" parent="1">
                    <mxGeometry x="800" y="490" width="120" height="40" as="geometry"/>
                </mxCell>
                <mxCell id="126" value="" style="edgeStyle=orthogonalEdgeStyle;html=1;verticalAlign=bottom;endArrow=open;endSize=8;strokeColor=#ff0000;" edge="1" source="125" parent="1" target="143">
                    <mxGeometry relative="1" as="geometry">
                        <mxPoint x="890" y="550" as="targetPoint"/>
                        <Array as="points"/>
                    </mxGeometry>
                </mxCell>
                <mxCell id="127" value="Customer Management" style="rounded=1;whiteSpace=wrap;html=1;arcSize=40;fontColor=#000000;fillColor=#ffffc0;strokeColor=#ff0000;" vertex="1" parent="1">
                    <mxGeometry x="980" y="530" width="120" height="40" as="geometry"/>
                </mxCell>
                <mxCell id="128" value="" style="edgeStyle=orthogonalEdgeStyle;html=1;verticalAlign=bottom;endArrow=open;endSize=8;strokeColor=#ff0000;" edge="1" source="127" parent="1">
                    <mxGeometry relative="1" as="geometry">
                        <mxPoint x="1040" y="630" as="targetPoint"/>
                    </mxGeometry>
                </mxCell>
                <mxCell id="129" value="Book Management" style="rounded=1;whiteSpace=wrap;html=1;arcSize=40;fontColor=#000000;fillColor=#ffffc0;strokeColor=#ff0000;" vertex="1" parent="1">
                    <mxGeometry x="1175" y="530" width="120" height="40" as="geometry"/>
                </mxCell>
                <mxCell id="130" value="" style="edgeStyle=orthogonalEdgeStyle;html=1;verticalAlign=bottom;endArrow=open;endSize=8;strokeColor=#ff0000;" edge="1" source="129" parent="1">
                    <mxGeometry relative="1" as="geometry">
                        <mxPoint x="1235" y="630" as="targetPoint"/>
                    </mxGeometry>
                </mxCell>
                <mxCell id="131" value="Employee Management" style="rounded=1;whiteSpace=wrap;html=1;arcSize=40;fontColor=#000000;fillColor=#ffffc0;strokeColor=#ff0000;" vertex="1" parent="1">
                    <mxGeometry x="1350" y="530" width="120" height="40" as="geometry"/>
                </mxCell>
                <mxCell id="132" value="" style="edgeStyle=orthogonalEdgeStyle;html=1;verticalAlign=bottom;endArrow=open;endSize=8;strokeColor=#ff0000;" edge="1" source="131" parent="1">
                    <mxGeometry relative="1" as="geometry">
                        <mxPoint x="1410" y="630" as="targetPoint"/>
                    </mxGeometry>
                </mxCell>
                <mxCell id="133" value="Payment Management" style="rounded=1;whiteSpace=wrap;html=1;arcSize=40;fontColor=#000000;fillColor=#ffffc0;strokeColor=#ff0000;" vertex="1" parent="1">
                    <mxGeometry x="1540" y="530" width="120" height="40" as="geometry"/>
                </mxCell>
                <mxCell id="134" value="" style="edgeStyle=orthogonalEdgeStyle;html=1;verticalAlign=bottom;endArrow=open;endSize=8;strokeColor=#ff0000;" edge="1" source="133" parent="1">
                    <mxGeometry relative="1" as="geometry">
                        <mxPoint x="1600" y="630" as="targetPoint"/>
                    </mxGeometry>
                </mxCell>
                <mxCell id="137" value="Inventory Management" style="rounded=1;whiteSpace=wrap;html=1;arcSize=40;fontColor=#000000;fillColor=#ffffc0;strokeColor=#ff0000;" vertex="1" parent="1">
                    <mxGeometry x="1690" y="540" width="120" height="40" as="geometry"/>
                </mxCell>
                <mxCell id="138" value="" style="edgeStyle=orthogonalEdgeStyle;html=1;verticalAlign=bottom;endArrow=open;endSize=8;strokeColor=#ff0000;" edge="1" source="137" parent="1">
                    <mxGeometry relative="1" as="geometry">
                        <mxPoint x="1750" y="640" as="targetPoint"/>
                    </mxGeometry>
                </mxCell>
                <mxCell id="139" value="Logout" style="rounded=1;whiteSpace=wrap;html=1;arcSize=40;fontColor=#000000;fillColor=#ffffc0;strokeColor=#ff0000;" vertex="1" parent="1">
                    <mxGeometry x="420" y="1930" width="120" height="40" as="geometry"/>
                </mxCell>
                <mxCell id="140" value="" style="edgeStyle=orthogonalEdgeStyle;html=1;verticalAlign=bottom;endArrow=open;endSize=8;strokeColor=#ff0000;entryX=0.5;entryY=0;entryDx=0;entryDy=0;" edge="1" source="139" parent="1" target="124">
                    <mxGeometry relative="1" as="geometry">
                        <mxPoint x="480" y="2030" as="targetPoint"/>
                    </mxGeometry>
                </mxCell>
                <mxCell id="141" value="Promotions and Gift Cards Management" style="rounded=1;whiteSpace=wrap;html=1;arcSize=40;fontColor=#000000;fillColor=#ffffc0;strokeColor=#ff0000;" vertex="1" parent="1">
                    <mxGeometry x="1940" y="530" width="120" height="40" as="geometry"/>
                </mxCell>
                <mxCell id="142" value="" style="edgeStyle=orthogonalEdgeStyle;html=1;verticalAlign=bottom;endArrow=open;endSize=8;strokeColor=#ff0000;" edge="1" source="141" parent="1">
                    <mxGeometry relative="1" as="geometry">
                        <mxPoint x="2000" y="630" as="targetPoint"/>
                    </mxGeometry>
                </mxCell>
                <mxCell id="143" value="Show Reports" style="rounded=1;whiteSpace=wrap;html=1;arcSize=40;fontColor=#000000;fillColor=#ffffc0;strokeColor=#ff0000;" vertex="1" parent="1">
                    <mxGeometry x="800" y="570" width="120" height="40" as="geometry"/>
                </mxCell>
                <mxCell id="144" value="" style="edgeStyle=orthogonalEdgeStyle;html=1;verticalAlign=bottom;endArrow=open;endSize=8;strokeColor=#ff0000;entryX=0.5;entryY=0;entryDx=0;entryDy=0;" edge="1" source="143" parent="1" target="145">
                    <mxGeometry relative="1" as="geometry">
                        <mxPoint x="890" y="640" as="targetPoint"/>
                    </mxGeometry>
                </mxCell>
                <mxCell id="145" value="Export Reports" style="rounded=1;whiteSpace=wrap;html=1;arcSize=40;fontColor=#000000;fillColor=#ffffc0;strokeColor=#ff0000;" vertex="1" parent="1">
                    <mxGeometry x="800" y="650" width="120" height="40" as="geometry"/>
                </mxCell>
                <mxCell id="146" value="" style="edgeStyle=orthogonalEdgeStyle;html=1;verticalAlign=bottom;endArrow=open;endSize=8;strokeColor=#ff0000;entryX=1;entryY=0.5;entryDx=0;entryDy=0;" edge="1" source="145" parent="1" target="139">
                    <mxGeometry relative="1" as="geometry">
                        <mxPoint x="840" y="800" as="targetPoint"/>
                        <Array as="points">
                            <mxPoint x="840" y="1950"/>
                        </Array>
                    </mxGeometry>
                </mxCell>
                <mxCell id="147" value="Print Invoice" style="rounded=1;whiteSpace=wrap;html=1;arcSize=40;fontColor=#000000;fillColor=#ffffc0;strokeColor=#ff0000;" vertex="1" parent="1">
                    <mxGeometry x="320" y="1200" width="120" height="40" as="geometry"/>
                </mxCell>
                <mxCell id="148" value="" style="edgeStyle=orthogonalEdgeStyle;html=1;verticalAlign=bottom;endArrow=open;endSize=8;strokeColor=#ff0000;entryX=0.5;entryY=0;entryDx=0;entryDy=0;" edge="1" source="147" parent="1" target="113">
                    <mxGeometry relative="1" as="geometry">
                        <mxPoint x="380" y="1370" as="targetPoint"/>
                        <Array as="points">
                            <mxPoint x="380" y="1280"/>
                            <mxPoint x="480" y="1280"/>
                        </Array>
                    </mxGeometry>
                </mxCell>
                <mxCell id="155" style="edgeStyle=none;html=1;exitX=0;exitY=0.5;exitDx=0;exitDy=0;exitPerimeter=0;strokeColor=#df3323;" edge="1" parent="1" source="152" target="125">
                    <mxGeometry relative="1" as="geometry"/>
                </mxCell>
                <mxCell id="152" value="" style="shape=line;html=1;strokeWidth=6;strokeColor=#ff0000;" vertex="1" parent="1">
                    <mxGeometry x="860" y="450" width="1350" height="10" as="geometry"/>
                </mxCell>
                <mxCell id="158" value="Activity" style="rounded=1;whiteSpace=wrap;html=1;arcSize=40;fontColor=#000000;fillColor=#ffffc0;strokeColor=#ff0000;" vertex="1" parent="1">
                    <mxGeometry x="930" y="720" width="120" height="40" as="geometry"/>
                </mxCell>
                <mxCell id="159" value="" style="edgeStyle=orthogonalEdgeStyle;html=1;verticalAlign=bottom;endArrow=open;endSize=8;strokeColor=#ff0000;" edge="1" source="158" parent="1">
                    <mxGeometry relative="1" as="geometry">
                        <mxPoint x="990" y="820" as="targetPoint"/>
                    </mxGeometry>
                </mxCell>
            </root>
        </mxGraphModel>
    </diagram>
</mxfile>